<?xml version="1.0" encoding="utf-8"?>
<!-- Generator: Adobe Illustrator 18.1.1, SVG Export Plug-In . SVG Version: 6.00 Build 0)  -->
<svg version="1.2" baseProfile="tiny" id="Layer_1" xmlns="http://www.w3.org/2000/svg" xmlns:xlink="http://www.w3.org/1999/xlink"
	 x="0px" y="0px" viewBox="0 0 40 40" xml:space="preserve">
<g>
	<path fill="#A68C73" d="M15.8,10.8c0,3.4,1.7,6.5,4.4,8.3c2.7-1.8,4.4-4.8,4.4-8.3S23.4,4,20.2,4S15.8,7.3,15.8,10.8z"/>
	<path fill="#A68C73" d="M10.9,24.4c3.4,0,6.5-1.7,8.3-4.4c-1.8-2.7-4.8-4.4-8.3-4.4S4.2,16.8,4.2,20S7.5,24.4,10.9,24.4z"/>
	<path fill="#A68C73" d="M24.6,29.3c0-3.4-1.7-6.5-4.4-8.3c-2.7,1.8-4.4,4.8-4.4,8.3S17,36,20.2,36S24.6,32.7,24.6,29.3z"/>
	<path fill="#A68C73" d="M29.4,15.6c-3.4,0-6.5,1.7-8.3,4.4c1.8,2.7,4.8,4.4,8.3,4.4s6.7-1.2,6.7-4.4S32.9,15.6,29.4,15.6z"/>
</g>
</svg>
